<mxfile host="app.diagrams.net" modified="2022-12-02T12:59:05.018Z" agent="5.0 (Windows NT 10.0; Win64; x64) AppleWebKit/537.36 (KHTML, like Gecko) Chrome/107.0.0.0 Safari/537.36 Edg/107.0.1418.62" etag="Z2C6I8ig_YdChLU2pCCv" version="20.6.0" type="github">
  <diagram id="qhsDJ91CU2YYItImqn5_" name="Страница 1">
    <mxGraphModel dx="1964" dy="1134" grid="1" gridSize="10" guides="1" tooltips="1" connect="1" arrows="1" fold="1" page="1" pageScale="1" pageWidth="1654" pageHeight="1169" math="0" shadow="0">
      <root>
        <mxCell id="0" />
        <mxCell id="1" parent="0" />
        <mxCell id="YB4bUk6LGylRbnZv_cs3-2" value="" style="rounded=0;whiteSpace=wrap;html=1;" parent="1" vertex="1">
          <mxGeometry x="362" y="164" width="910" height="840" as="geometry" />
        </mxCell>
        <mxCell id="YB4bUk6LGylRbnZv_cs3-7" style="edgeStyle=orthogonalEdgeStyle;rounded=0;orthogonalLoop=1;jettySize=auto;html=1;exitX=0.5;exitY=0.5;exitDx=0;exitDy=0;exitPerimeter=0;entryX=0.5;entryY=0;entryDx=0;entryDy=0;endArrow=none;endFill=0;" parent="1" source="YB4bUk6LGylRbnZv_cs3-3" target="YB4bUk6LGylRbnZv_cs3-6" edge="1">
          <mxGeometry relative="1" as="geometry" />
        </mxCell>
        <mxCell id="YB4bUk6LGylRbnZv_cs3-8" style="edgeStyle=orthogonalEdgeStyle;rounded=0;orthogonalLoop=1;jettySize=auto;html=1;exitX=0.5;exitY=0.5;exitDx=0;exitDy=0;exitPerimeter=0;entryX=0.5;entryY=1;entryDx=0;entryDy=0;endArrow=none;endFill=0;" parent="1" source="YB4bUk6LGylRbnZv_cs3-3" target="YB4bUk6LGylRbnZv_cs3-4" edge="1">
          <mxGeometry relative="1" as="geometry" />
        </mxCell>
        <mxCell id="YB4bUk6LGylRbnZv_cs3-3" value="участник&lt;br&gt;соревнований" style="shape=umlActor;verticalLabelPosition=bottom;verticalAlign=top;html=1;outlineConnect=0;" parent="1" vertex="1">
          <mxGeometry x="282" y="264" width="40" height="80" as="geometry" />
        </mxCell>
        <mxCell id="1DZDy4IHvUp77OthvZM6-10" style="edgeStyle=orthogonalEdgeStyle;rounded=0;orthogonalLoop=1;jettySize=auto;html=1;exitX=1;exitY=0.5;exitDx=0;exitDy=0;entryX=0;entryY=0.5;entryDx=0;entryDy=0;dashed=1;endArrow=classic;endFill=1;" parent="1" source="YB4bUk6LGylRbnZv_cs3-4" target="1DZDy4IHvUp77OthvZM6-1" edge="1">
          <mxGeometry relative="1" as="geometry">
            <Array as="points">
              <mxPoint x="639.5" y="239" />
              <mxPoint x="639.5" y="359" />
            </Array>
          </mxGeometry>
        </mxCell>
        <mxCell id="YB4bUk6LGylRbnZv_cs3-4" value="авторизация" style="ellipse;whiteSpace=wrap;html=1;" parent="1" vertex="1">
          <mxGeometry x="499.5" y="204" width="105" height="70" as="geometry" />
        </mxCell>
        <mxCell id="1DZDy4IHvUp77OthvZM6-61" style="edgeStyle=orthogonalEdgeStyle;rounded=0;orthogonalLoop=1;jettySize=auto;html=1;exitX=0.5;exitY=0.5;exitDx=0;exitDy=0;exitPerimeter=0;entryX=1;entryY=0.5;entryDx=0;entryDy=0;fontSize=10;endArrow=none;endFill=0;" parent="1" source="YB4bUk6LGylRbnZv_cs3-5" target="1DZDy4IHvUp77OthvZM6-58" edge="1">
          <mxGeometry relative="1" as="geometry">
            <Array as="points">
              <mxPoint x="1242" y="445" />
              <mxPoint x="1242" y="333" />
            </Array>
          </mxGeometry>
        </mxCell>
        <mxCell id="1DZDy4IHvUp77OthvZM6-62" style="edgeStyle=orthogonalEdgeStyle;rounded=0;orthogonalLoop=1;jettySize=auto;html=1;exitX=0.5;exitY=0.5;exitDx=0;exitDy=0;exitPerimeter=0;entryX=1;entryY=0.5;entryDx=0;entryDy=0;fontSize=10;endArrow=none;endFill=0;" parent="1" source="YB4bUk6LGylRbnZv_cs3-5" target="1DZDy4IHvUp77OthvZM6-59" edge="1">
          <mxGeometry relative="1" as="geometry" />
        </mxCell>
        <mxCell id="1DZDy4IHvUp77OthvZM6-63" style="edgeStyle=orthogonalEdgeStyle;rounded=0;orthogonalLoop=1;jettySize=auto;html=1;exitX=0.5;exitY=0.5;exitDx=0;exitDy=0;exitPerimeter=0;entryX=1;entryY=0.5;entryDx=0;entryDy=0;fontSize=10;endArrow=none;endFill=0;" parent="1" source="YB4bUk6LGylRbnZv_cs3-5" target="1DZDy4IHvUp77OthvZM6-60" edge="1">
          <mxGeometry relative="1" as="geometry">
            <Array as="points">
              <mxPoint x="1242" y="445" />
              <mxPoint x="1242" y="554" />
            </Array>
          </mxGeometry>
        </mxCell>
        <mxCell id="YB4bUk6LGylRbnZv_cs3-5" value="наблюдатель" style="shape=umlActor;verticalLabelPosition=bottom;verticalAlign=top;html=1;outlineConnect=0;" parent="1" vertex="1">
          <mxGeometry x="1332" y="404.5" width="40" height="80" as="geometry" />
        </mxCell>
        <mxCell id="1DZDy4IHvUp77OthvZM6-8" style="edgeStyle=orthogonalEdgeStyle;rounded=0;orthogonalLoop=1;jettySize=auto;html=1;exitX=1;exitY=0.5;exitDx=0;exitDy=0;entryX=0;entryY=0.5;entryDx=0;entryDy=0;endArrow=classic;endFill=1;dashed=1;" parent="1" source="YB4bUk6LGylRbnZv_cs3-6" target="1DZDy4IHvUp77OthvZM6-1" edge="1">
          <mxGeometry relative="1" as="geometry">
            <Array as="points">
              <mxPoint x="639.5" y="479" />
              <mxPoint x="639.5" y="359" />
            </Array>
          </mxGeometry>
        </mxCell>
        <mxCell id="1DZDy4IHvUp77OthvZM6-29" style="edgeStyle=orthogonalEdgeStyle;rounded=0;orthogonalLoop=1;jettySize=auto;html=1;exitX=0.5;exitY=1;exitDx=0;exitDy=0;entryX=0.5;entryY=0;entryDx=0;entryDy=0;dashed=1;fontSize=10;endArrow=classic;endFill=1;" parent="1" source="YB4bUk6LGylRbnZv_cs3-6" target="1DZDy4IHvUp77OthvZM6-28" edge="1">
          <mxGeometry relative="1" as="geometry" />
        </mxCell>
        <mxCell id="1DZDy4IHvUp77OthvZM6-31" style="edgeStyle=orthogonalEdgeStyle;rounded=0;orthogonalLoop=1;jettySize=auto;html=1;exitX=0.5;exitY=1;exitDx=0;exitDy=0;entryX=0.5;entryY=0;entryDx=0;entryDy=0;dashed=1;fontSize=10;endArrow=classic;endFill=1;" parent="1" source="YB4bUk6LGylRbnZv_cs3-6" target="1DZDy4IHvUp77OthvZM6-30" edge="1">
          <mxGeometry relative="1" as="geometry" />
        </mxCell>
        <mxCell id="YB4bUk6LGylRbnZv_cs3-6" value="регистрация на сайте" style="ellipse;whiteSpace=wrap;html=1;" parent="1" vertex="1">
          <mxGeometry x="499.5" y="444" width="105" height="70" as="geometry" />
        </mxCell>
        <mxCell id="1DZDy4IHvUp77OthvZM6-13" style="edgeStyle=orthogonalEdgeStyle;rounded=0;orthogonalLoop=1;jettySize=auto;html=1;exitX=1;exitY=0.5;exitDx=0;exitDy=0;dashed=1;endArrow=none;endFill=0;" parent="1" source="YB4bUk6LGylRbnZv_cs3-9" edge="1">
          <mxGeometry relative="1" as="geometry">
            <mxPoint x="549.5" y="382.9047619047619" as="targetPoint" />
          </mxGeometry>
        </mxCell>
        <mxCell id="YB4bUk6LGylRbnZv_cs3-9" value="если участник&lt;br&gt;записывается на&lt;br&gt;соревнования в&lt;br&gt;первый раз" style="rounded=0;whiteSpace=wrap;html=1;" parent="1" vertex="1">
          <mxGeometry x="399.5" y="353" width="120" height="60" as="geometry" />
        </mxCell>
        <mxCell id="1DZDy4IHvUp77OthvZM6-77" style="edgeStyle=orthogonalEdgeStyle;rounded=0;orthogonalLoop=1;jettySize=auto;html=1;exitX=1;exitY=0.5;exitDx=0;exitDy=0;entryX=0.5;entryY=0;entryDx=0;entryDy=0;fontSize=10;endArrow=classic;endFill=1;dashed=1;" parent="1" source="1DZDy4IHvUp77OthvZM6-1" target="1DZDy4IHvUp77OthvZM6-18" edge="1">
          <mxGeometry relative="1" as="geometry">
            <Array as="points">
              <mxPoint x="1015" y="359" />
              <mxPoint x="1015" y="453" />
            </Array>
          </mxGeometry>
        </mxCell>
        <mxCell id="1DZDy4IHvUp77OthvZM6-1" value="регистрация на соревнования" style="ellipse;whiteSpace=wrap;html=1;" parent="1" vertex="1">
          <mxGeometry x="819.5" y="324" width="105" height="70" as="geometry" />
        </mxCell>
        <mxCell id="1DZDy4IHvUp77OthvZM6-14" style="edgeStyle=orthogonalEdgeStyle;rounded=0;orthogonalLoop=1;jettySize=auto;html=1;exitX=0.5;exitY=1;exitDx=0;exitDy=0;dashed=1;endArrow=none;endFill=0;" parent="1" source="1DZDy4IHvUp77OthvZM6-4" edge="1">
          <mxGeometry relative="1" as="geometry">
            <mxPoint x="734.4047619047619" y="359" as="targetPoint" />
          </mxGeometry>
        </mxCell>
        <mxCell id="1DZDy4IHvUp77OthvZM6-4" value="&lt;div style=&quot;text-align: left;&quot;&gt;&lt;span style=&quot;background-color: rgb(255, 255, 255);&quot;&gt;Передача данных:&amp;nbsp;&lt;/span&gt;&lt;/div&gt;&lt;ul&gt;&lt;li style=&quot;text-align: left;&quot;&gt;&lt;span style=&quot;background-color: rgb(255, 255, 255);&quot;&gt;ростовая категория собаки&lt;/span&gt;&lt;/li&gt;&lt;li style=&quot;text-align: left;&quot;&gt;&lt;span style=&quot;background-color: rgb(255, 255, 255);&quot;&gt;порода&lt;/span&gt;&lt;/li&gt;&lt;li style=&quot;text-align: left;&quot;&gt;&lt;span style=&quot;background-color: rgb(255, 255, 255);&quot;&gt;ветеринарный сертификат&lt;/span&gt;&lt;/li&gt;&lt;li style=&quot;text-align: left;&quot;&gt;&lt;span style=&quot;background-color: rgb(255, 255, 255);&quot;&gt;даты и время соревнований&lt;/span&gt;&lt;/li&gt;&lt;li style=&quot;text-align: left;&quot;&gt;&lt;span style=&quot;background-color: rgb(255, 255, 255);&quot;&gt;уровень сложности&lt;/span&gt;&lt;/li&gt;&lt;/ul&gt;" style="rounded=0;whiteSpace=wrap;html=1;align=center;horizontal=1;fontSize=10;" parent="1" vertex="1">
          <mxGeometry x="652" y="224" width="182.5" height="100" as="geometry" />
        </mxCell>
        <mxCell id="1DZDy4IHvUp77OthvZM6-36" style="edgeStyle=orthogonalEdgeStyle;rounded=0;orthogonalLoop=1;jettySize=auto;html=1;exitX=0.5;exitY=1;exitDx=0;exitDy=0;entryX=0.5;entryY=0;entryDx=0;entryDy=0;dashed=1;fontSize=10;endArrow=classic;endFill=1;" parent="1" source="1DZDy4IHvUp77OthvZM6-18" target="1DZDy4IHvUp77OthvZM6-21" edge="1">
          <mxGeometry relative="1" as="geometry" />
        </mxCell>
        <mxCell id="1DZDy4IHvUp77OthvZM6-82" style="edgeStyle=orthogonalEdgeStyle;rounded=0;orthogonalLoop=1;jettySize=auto;html=1;exitX=0;exitY=0.5;exitDx=0;exitDy=0;entryX=0.5;entryY=0;entryDx=0;entryDy=0;dashed=1;strokeWidth=1;fontSize=10;endArrow=classic;endFill=1;" parent="1" source="1DZDy4IHvUp77OthvZM6-18" target="1DZDy4IHvUp77OthvZM6-76" edge="1">
          <mxGeometry relative="1" as="geometry" />
        </mxCell>
        <mxCell id="1DZDy4IHvUp77OthvZM6-18" value="оплата" style="ellipse;whiteSpace=wrap;html=1;" parent="1" vertex="1">
          <mxGeometry x="962" y="404.5" width="105" height="70" as="geometry" />
        </mxCell>
        <mxCell id="1DZDy4IHvUp77OthvZM6-37" style="edgeStyle=orthogonalEdgeStyle;rounded=0;orthogonalLoop=1;jettySize=auto;html=1;exitX=0.5;exitY=1;exitDx=0;exitDy=0;entryX=0.5;entryY=0;entryDx=0;entryDy=0;dashed=1;fontSize=10;endArrow=classic;endFill=1;" parent="1" source="1DZDy4IHvUp77OthvZM6-21" target="1DZDy4IHvUp77OthvZM6-33" edge="1">
          <mxGeometry relative="1" as="geometry" />
        </mxCell>
        <mxCell id="1DZDy4IHvUp77OthvZM6-21" value="подтверждение оплаты" style="ellipse;whiteSpace=wrap;html=1;" parent="1" vertex="1">
          <mxGeometry x="962" y="504.5" width="105" height="70" as="geometry" />
        </mxCell>
        <mxCell id="1DZDy4IHvUp77OthvZM6-28" value="ввод личных&lt;br&gt;данных" style="rounded=0;whiteSpace=wrap;html=1;" parent="1" vertex="1">
          <mxGeometry x="414.5" y="574" width="90" height="50" as="geometry" />
        </mxCell>
        <mxCell id="1DZDy4IHvUp77OthvZM6-30" value="привязка&lt;br&gt;банковской&lt;br&gt;карты" style="ellipse;whiteSpace=wrap;html=1;" parent="1" vertex="1">
          <mxGeometry x="604.5" y="574" width="105" height="70" as="geometry" />
        </mxCell>
        <mxCell id="1DZDy4IHvUp77OthvZM6-33" value="получать уведомления" style="ellipse;whiteSpace=wrap;html=1;" parent="1" vertex="1">
          <mxGeometry x="962" y="604.5" width="105" height="70" as="geometry" />
        </mxCell>
        <mxCell id="1DZDy4IHvUp77OthvZM6-58" value="&lt;span style=&quot;font-size: 11px; background-color: rgb(255, 255, 255);&quot;&gt;просмотр &lt;br&gt;информации&lt;/span&gt;&lt;br style=&quot;font-size: 11px;&quot;&gt;&lt;span style=&quot;font-size: 11px; background-color: rgb(255, 255, 255);&quot;&gt;о будущих соревнованиях&lt;/span&gt;" style="ellipse;whiteSpace=wrap;html=1;" parent="1" vertex="1">
          <mxGeometry x="1102" y="293" width="120" height="80" as="geometry" />
        </mxCell>
        <mxCell id="1DZDy4IHvUp77OthvZM6-59" value="&lt;span style=&quot;font-size: 11px; background-color: rgb(255, 255, 255);&quot;&gt;просмотр &lt;br&gt;информации&lt;/span&gt;&lt;br style=&quot;font-size: 11px;&quot;&gt;&lt;span style=&quot;font-size: 11px; background-color: rgb(255, 255, 255);&quot;&gt;о прошедших&lt;br&gt;соревнованиях&lt;/span&gt;" style="ellipse;whiteSpace=wrap;html=1;" parent="1" vertex="1">
          <mxGeometry x="1102" y="404" width="120" height="80" as="geometry" />
        </mxCell>
        <mxCell id="1DZDy4IHvUp77OthvZM6-60" value="&lt;span style=&quot;font-size: 11px; background-color: rgb(255, 255, 255);&quot;&gt;просмотр &lt;br&gt;информации&lt;/span&gt;&lt;br style=&quot;font-size: 11px;&quot;&gt;&lt;span style=&quot;font-size: 11px; background-color: rgb(255, 255, 255);&quot;&gt;о действующих&lt;br&gt;соревнованиях&lt;/span&gt;" style="ellipse;whiteSpace=wrap;html=1;" parent="1" vertex="1">
          <mxGeometry x="1102" y="514" width="120" height="80" as="geometry" />
        </mxCell>
        <mxCell id="1DZDy4IHvUp77OthvZM6-67" value="&amp;lt;in&amp;gt;" style="text;html=1;strokeColor=none;fillColor=none;align=center;verticalAlign=middle;whiteSpace=wrap;rounded=0;direction=west;rotation=0;" parent="1" vertex="1">
          <mxGeometry x="702" y="353" width="60" height="30" as="geometry" />
        </mxCell>
        <mxCell id="1DZDy4IHvUp77OthvZM6-69" value="&amp;lt;in&amp;gt;" style="text;html=1;strokeColor=none;fillColor=none;align=center;verticalAlign=middle;whiteSpace=wrap;rounded=0;direction=west;rotation=0;" parent="1" vertex="1">
          <mxGeometry x="919.5" y="334" width="60" height="30" as="geometry" />
        </mxCell>
        <mxCell id="1DZDy4IHvUp77OthvZM6-70" value="&amp;lt;in&amp;gt;" style="text;html=1;strokeColor=none;fillColor=none;align=center;verticalAlign=middle;whiteSpace=wrap;rounded=0;direction=west;rotation=0;" parent="1" vertex="1">
          <mxGeometry x="969.5" y="474.5" width="60" height="30" as="geometry" />
        </mxCell>
        <mxCell id="1DZDy4IHvUp77OthvZM6-71" value="&amp;lt;in&amp;gt;" style="text;html=1;strokeColor=none;fillColor=none;align=center;verticalAlign=middle;whiteSpace=wrap;rounded=0;direction=west;rotation=0;" parent="1" vertex="1">
          <mxGeometry x="962" y="575" width="60" height="30" as="geometry" />
        </mxCell>
        <mxCell id="1DZDy4IHvUp77OthvZM6-72" value="&amp;lt;in&amp;gt;" style="text;html=1;strokeColor=none;fillColor=none;align=center;verticalAlign=middle;whiteSpace=wrap;rounded=0;direction=west;rotation=0;" parent="1" vertex="1">
          <mxGeometry x="627" y="413" width="60" height="30" as="geometry" />
        </mxCell>
        <mxCell id="1DZDy4IHvUp77OthvZM6-73" value="&amp;lt;ex&amp;gt;" style="text;html=1;strokeColor=none;fillColor=none;align=center;verticalAlign=middle;whiteSpace=wrap;rounded=0;direction=west;rotation=0;" parent="1" vertex="1">
          <mxGeometry x="582" y="523" width="60" height="30" as="geometry" />
        </mxCell>
        <mxCell id="1DZDy4IHvUp77OthvZM6-74" value="&amp;lt;in&amp;gt;" style="text;html=1;strokeColor=none;fillColor=none;align=center;verticalAlign=middle;whiteSpace=wrap;rounded=0;direction=west;rotation=0;" parent="1" vertex="1">
          <mxGeometry x="462" y="523" width="60" height="30" as="geometry" />
        </mxCell>
        <mxCell id="1DZDy4IHvUp77OthvZM6-83" style="edgeStyle=orthogonalEdgeStyle;rounded=0;orthogonalLoop=1;jettySize=auto;html=1;exitX=1;exitY=0.5;exitDx=0;exitDy=0;dashed=1;strokeWidth=1;fontSize=10;endArrow=none;endFill=0;" parent="1" source="1DZDy4IHvUp77OthvZM6-75" edge="1">
          <mxGeometry relative="1" as="geometry">
            <mxPoint x="880" y="513.6666666666667" as="targetPoint" />
          </mxGeometry>
        </mxCell>
        <mxCell id="1DZDy4IHvUp77OthvZM6-75" value="&lt;span style=&quot;font-size: 12px;&quot;&gt;если банковскую&lt;/span&gt;&lt;br style=&quot;font-size: 12px;&quot;&gt;&lt;span style=&quot;font-size: 12px;&quot;&gt;карту не привязали&lt;/span&gt;&lt;br style=&quot;font-size: 12px;&quot;&gt;&lt;span style=&quot;font-size: 12px;&quot;&gt;при регистрации&lt;/span&gt;" style="rounded=0;whiteSpace=wrap;html=1;fontSize=10;" parent="1" vertex="1">
          <mxGeometry x="742" y="484" width="120" height="60" as="geometry" />
        </mxCell>
        <mxCell id="1DZDy4IHvUp77OthvZM6-76" value="ввод&lt;br&gt;банковской&lt;br&gt;карты" style="ellipse;whiteSpace=wrap;html=1;" parent="1" vertex="1">
          <mxGeometry x="827" y="604.5" width="105" height="70" as="geometry" />
        </mxCell>
        <mxCell id="1DZDy4IHvUp77OthvZM6-81" value="&amp;lt;ex&amp;gt;" style="text;html=1;strokeColor=none;fillColor=none;align=center;verticalAlign=middle;whiteSpace=wrap;rounded=0;direction=west;rotation=0;" parent="1" vertex="1">
          <mxGeometry x="889.5" y="413" width="60" height="30" as="geometry" />
        </mxCell>
      </root>
    </mxGraphModel>
  </diagram>
</mxfile>
